<svg id="svg" version="1.1" xmlns="http://www.w3.org/2000/svg" xmlns:xlink="http://www.w3.org/1999/xlink" width="400" height="359.6666666666667" viewBox="0, 0, 400,359.6666666666667"><g id="svgg"><path id="path0" d="M99.000 8.382 C 71.090 10.946,43.771 25.375,26.833 46.500 C -1.425 81.742,-1.529 130.991,26.552 180.436 C 48.565 219.199,79.812 252.070,141.500 301.359 C 156.710 313.512,168.280 322.479,198.288 345.367 L 202.075 348.255 211.954 340.733 C 316.642 261.012,353.861 224.548,379.966 176.125 C 411.566 117.512,402.431 59.573,356.500 27.287 C 304.943 -8.953,232.943 7.779,204.013 62.725 L 202.060 66.435 200.870 64.072 C 182.211 27.020,141.050 4.518,99.000 8.382 " stroke="none" fill="#fc7cac" fill-rule="evenodd"></path><path id="path1" d="" stroke="none" fill="#1007cac" fill-rule="evenodd"></path><path id="path2" d="" stroke="none" fill="#1007cac" fill-rule="evenodd"></path><path id="path3" d="" stroke="none" fill="#1007cac" fill-rule="evenodd"></path><path id="path4" d="" stroke="none" fill="#1007cac" fill-rule="evenodd"></path></g></svg>